<?xml version="1.0" standalone="no"?>
<!DOCTYPE svg PUBLIC "-//W3C//DTD SVG 20010904//EN"
 "http://www.w3.org/TR/2001/REC-SVG-20010904/DTD/svg10.dtd">
<svg version="1.0" xmlns="http://www.w3.org/2000/svg"
 width="1024.000000pt" height="1024.000000pt" viewBox="0 0 1024.000000 1024.000000"
 preserveAspectRatio="xMidYMid meet">
<metadata>
Created by potrace 1.14, written by Peter Selinger 2001-2017
</metadata>
<g transform="translate(0.000000,1024.000000) scale(0.100000,-0.100000)"
fill="#000000" stroke="none">
<path d="M2209 8176 c-2 -2 -76 -7 -164 -10 -180 -8 -221 -10 -385 -22 -185
-14 -734 -8 -1081 11 l-76 4 0 -124 -1 -125 41 -1 c23 -1 51 -3 62 -4 11 -1
67 -6 125 -9 219 -13 290 -29 344 -76 74 -65 116 -213 131 -456 13 -214 14
-264 7 -265 -4 0 -16 -2 -27 -3 -11 -2 -45 -6 -75 -11 -72 -9 -209 -49 -279
-81 -142 -65 -275 -181 -366 -319 -102 -155 -127 -238 -98 -320 14 -40 11 -85
-6 -85 -15 0 -21 30 -9 49 13 22 5 51 -15 51 -21 0 -49 -61 -45 -99 7 -70 90
-92 124 -32 14 25 14 24 8 -24 -14 -116 -13 -186 3 -192 23 -9 31 8 38 76 3
36 13 94 21 130 8 36 17 77 20 90 3 13 9 32 15 43 5 10 8 18 5 18 -6 0 39 111
71 175 57 113 167 241 264 306 83 56 206 111 279 125 14 3 41 9 60 14 56 14
148 23 255 25 106 1 158 -5 215 -27 32 -12 17 -13 -150 -14 -337 -1 -540 -60
-685 -200 -185 -178 -281 -397 -311 -708 -6 -62 -5 -66 14 -66 16 0 22 9 27
43 4 23 9 51 11 62 3 11 7 38 10 60 11 75 55 210 94 286 110 221 296 380 511
438 115 31 124 32 300 38 219 7 365 -19 410 -73 13 -16 12 -16 -6 -6 -12 6
-57 15 -101 21 -44 7 -91 14 -105 16 -33 7 -206 7 -254 0 -227 -32 -397 -110
-533 -243 -152 -149 -238 -324 -276 -557 -14 -91 -12 -105 14 -105 15 0 22 15
35 78 34 158 81 278 150 382 130 195 355 335 605 377 14 2 74 6 134 9 112 4
192 -4 304 -32 35 -8 65 -14 67 -12 1 2 5 212 9 468 6 449 9 516 17 525 15 15
709 24 864 11 164 -14 205 -18 300 -32 94 -14 122 -18 185 -29 73 -13 282 -69
377 -101 120 -41 290 -118 401 -183 161 -94 375 -276 483 -411 24 -30 46 -57
49 -60 11 -10 107 -157 134 -204 141 -245 259 -583 315 -901 6 -33 13 -69 15
-80 2 -11 7 -45 11 -75 4 -30 9 -62 10 -70 2 -8 6 -53 10 -100 4 -47 9 -98 11
-115 4 -41 4 -422 0 -460 -2 -16 -7 -70 -11 -119 -3 -49 -8 -92 -10 -95 -2 -4
-6 -33 -10 -65 -3 -33 -17 -116 -31 -185 -113 -569 -352 -1019 -749 -1409
-366 -360 -746 -566 -1355 -733 -58 -16 -121 -33 -140 -39 -105 -30 -217 -61
-235 -65 -11 -3 -51 -14 -90 -24 l-70 -19 50 -4 c59 -6 744 -1 795 5 19 3 62
8 95 11 559 61 1023 233 1425 530 131 96 349 316 452 456 202 274 333 534 449
895 28 88 92 351 105 429 3 21 7 48 10 59 4 25 22 155 29 217 26 222 26 722 0
881 -2 13 -9 67 -15 119 -64 521 -262 1019 -543 1365 -291 360 -697 624 -1218
793 -116 38 -336 95 -404 105 -16 3 -57 10 -90 15 -90 16 -118 20 -265 37 -74
8 -157 18 -185 21 -53 6 -900 15 -906 10z m-815 -1095 c50 -1 24 -8 -54 -15
-41 -3 -86 -8 -100 -11 -13 -3 -42 -7 -63 -10 -60 -9 -206 -53 -264 -80 -121
-55 -245 -160 -318 -270 -70 -107 -136 -262 -151 -360 -7 -47 -14 -59 -14 -23
0 14 -6 43 -14 64 -7 22 -12 46 -11 54 9 54 116 257 180 340 89 114 172 173
331 233 167 62 286 86 409 80 22 -1 53 -2 69 -2z"/>
<path d="M1486 6779 c-146 -21 -255 -63 -374 -144 -177 -119 -298 -284 -366
-500 -37 -117 -40 -142 -18 -154 21 -11 42 3 42 26 0 32 74 191 123 266 141
211 329 347 557 402 114 28 307 28 453 0 l37 -7 0 35 c0 33 -3 35 -44 46 -24
6 -61 14 -83 17 -21 3 -42 8 -46 11 -15 9 -221 11 -281 2z"/>
<path d="M1630 6629 c-148 -13 -256 -44 -364 -106 -151 -88 -317 -260 -398
-413 -35 -66 -60 -138 -53 -150 14 -23 37 -6 93 68 146 190 303 343 422 409
58 33 181 79 230 88 122 22 196 24 318 11 l62 -7 0 40 c0 38 -1 39 -41 46 -83
14 -196 20 -269 14z"/>
<path d="M164 6516 c-47 -23 -84 -54 -84 -69 0 -5 15 -6 35 -3 20 4 45 4 57 0
19 -6 20 -11 15 -93 -4 -47 -7 -101 -7 -119 0 -20 -4 -31 -10 -27 -6 4 -8 10
-5 15 3 5 1 28 -5 50 -13 49 -35 52 -88 13 -52 -39 -58 -46 -66 -71 -9 -26 -7
-27 39 -5 51 25 66 6 71 -88 2 -39 9 -89 14 -110 17 -64 79 -96 131 -69 14 8
19 21 19 51 0 39 0 39 -23 25 -12 -9 -32 -13 -44 -10 -22 6 -28 16 -44 68 -11
38 2 24 16 -16 5 -17 20 -35 32 -39 33 -12 75 27 78 72 3 49 -3 54 -31 23 -14
-14 -28 -24 -31 -20 -6 6 -5 126 2 167 20 126 27 237 15 258 -13 25 -32 25
-86 -3z"/>
<path d="M1610 6444 c-197 -41 -279 -96 -557 -368 -112 -109 -140 -142 -132
-153 6 -7 20 -13 31 -13 11 0 97 60 192 133 195 152 241 184 312 220 55 28
158 63 214 73 19 3 42 7 50 9 8 2 61 4 118 4 l102 1 0 49 c0 41 -3 50 -20 54
-40 10 -246 5 -310 -9z"/>
<path d="M1809 6258 c-86 -12 -109 -19 -192 -48 -106 -39 -263 -126 -445 -247
-92 -61 -141 -100 -138 -108 3 -8 -11 -3 -31 11 -48 32 -69 30 -109 -10 -26
-26 -34 -42 -34 -71 0 -28 -7 -43 -33 -68 -19 -18 -36 -38 -38 -46 -4 -11 -15
-10 -64 5 -33 10 -62 19 -64 21 -2 1 -4 24 -5 50 -1 42 -4 49 -29 61 -25 12
-286 82 -307 82 -10 0 -35 -81 -56 -177 -14 -70 -29 -104 -91 -213 -24 -41
-43 -82 -43 -91 0 -8 14 -28 30 -44 33 -32 37 -52 16 -93 -15 -31 -15 -127 1
-157 8 -15 6 -34 -7 -75 -18 -58 -14 -98 15 -130 8 -9 18 -30 21 -48 6 -31 27
-44 90 -56 10 -3 39 -9 64 -15 67 -16 79 -14 92 15 11 24 15 25 57 19 26 -4
67 -11 93 -17 47 -9 48 -11 63 -61 12 -46 33 -153 50 -257 3 -19 8 -42 10 -50
2 -8 7 -40 10 -70 4 -30 8 -57 10 -60 2 -3 6 -30 9 -60 4 -30 9 -68 13 -84 4
-24 2 -28 -11 -23 -10 4 -22 -2 -32 -18 -18 -27 -11 -47 14 -44 10 1 24 -1 32
-4 18 -7 96 -31 173 -52 31 -9 57 -20 57 -25 0 -4 -8 -18 -19 -31 l-18 -23
-129 33 c-71 18 -136 35 -145 37 -12 3 -20 -5 -28 -27 -6 -18 -11 -35 -11 -39
0 -4 65 -22 145 -40 136 -31 145 -35 139 -54 -4 -12 -13 -28 -20 -37 -13 -15
-26 -13 -142 17 -70 19 -132 34 -139 34 -12 0 -30 -66 -20 -76 4 -4 258 -64
272 -64 7 0 -16 -60 -25 -65 -5 -3 -66 9 -136 26 -70 16 -130 27 -134 22 -9
-10 -22 -63 -16 -63 2 0 31 -7 63 -15 32 -8 69 -16 83 -19 81 -13 110 -27 110
-50 0 -49 -22 -53 -141 -22 -59 16 -115 26 -124 23 -9 -4 -15 -19 -15 -40 l0
-34 120 -28 c118 -28 119 -29 114 -54 -10 -44 -28 -51 -87 -35 -29 8 -64 16
-79 19 -15 3 -38 9 -52 15 -22 8 -26 7 -27 -8 0 -9 -2 -29 -4 -44 -4 -31 5
-34 136 -61 68 -14 80 -28 56 -61 -13 -18 -17 -18 -87 -2 -100 22 -100 22 -89
-16 11 -40 19 -47 54 -54 84 -15 135 27 170 144 65 217 129 407 175 519 242
602 560 929 892 917 42 -1 82 -5 88 -9 10 -6 11 -3 14 55 1 35 1 35 -54 46
-59 11 -146 11 -220 -1 -68 -11 -119 -12 -206 -4 -43 4 -110 11 -149 14 -38 4
-99 10 -135 15 -36 4 -68 6 -71 4 -4 -2 -7 17 -7 42 -1 36 1 44 12 35 13 -11
67 -16 291 -27 77 -3 143 -8 146 -10 3 -1 37 4 75 12 133 28 172 31 249 20 75
-11 71 -14 66 58 -2 29 -150 36 -281 13 -41 -8 -97 -13 -125 -11 -153 7 -288
15 -352 20 -64 6 -72 4 -76 -12 -3 -11 -5 5 -6 33 l-1 53 138 -7 c232 -11 383
-9 437 7 30 8 93 14 157 14 116 0 119 2 110 65 l-4 24 -136 -6 c-76 -3 -148
-9 -162 -13 -14 -4 -141 -8 -282 -9 l-258 -1 0 37 0 37 123 1 c244 3 383 10
412 21 59 23 155 37 232 35 l78 -2 -2 36 c-1 20 -2 42 -2 49 -1 17 -161 16
-281 -3 -199 -32 -303 -43 -458 -50 -50 -2 -95 -6 -100 -9 -4 -2 -8 12 -8 33
-1 36 -1 37 40 38 37 0 71 3 221 18 80 8 163 24 265 51 61 17 135 28 208 31
l112 6 0 49 0 49 -77 -2 c-87 -2 -158 -15 -313 -54 -58 -14 -117 -28 -132 -30
-15 -2 -35 -6 -45 -9 -10 -3 -36 -8 -58 -11 -23 -3 -50 -7 -61 -9 -11 -2 -46
-7 -77 -11 -32 -4 -65 -14 -73 -22 -13 -14 -15 -10 -13 31 2 38 6 46 22 46 44
0 235 45 405 95 192 57 272 75 362 79 l55 2 3 57 3 57 -43 -4 c-151 -17 -183
-24 -393 -91 -308 -97 -407 -127 -412 -122 -2 3 -7 19 -9 35 -5 30 -5 30 93
62 54 18 167 61 251 96 221 92 300 115 415 121 l98 6 -3 56 -3 56 -75 -1 c-93
-1 -119 -6 -245 -49 -84 -29 -472 -194 -527 -225 -14 -8 -18 -6 -18 7 0 10 -6
30 -14 45 -11 20 -11 25 -2 22 7 -3 53 14 102 37 49 23 121 56 159 74 39 18
122 57 185 88 158 76 284 117 371 120 l69 2 0 58 c0 38 -4 57 -12 58 -62 4
-81 3 -119 -3z m-1379 -513 c80 -42 74 -45 -11 -5 -59 27 -64 28 -81 13 -20
-18 -25 -4 -6 15 17 17 25 15 98 -23z m95 -53 c-3 -3 -11 0 -18 7 -9 10 -8 11
6 5 10 -3 15 -9 12 -12z m-144 -43 c22 -11 75 -29 116 -40 72 -18 118 -37 63
-25 -94 19 -100 19 -153 -18 -32 -22 -69 -37 -96 -41 l-44 -5 5 37 c8 56 35
113 53 113 9 0 34 -9 56 -21z m859 -904 c47 -3 101 -8 120 -10 37 -4 186 -17
208 -18 20 -1 15 -6 -50 -48 -65 -42 -69 -42 -166 -24 -10 1 -49 8 -89 15 -39
6 -80 13 -90 15 -10 2 -30 4 -44 4 -24 1 -27 4 -26 41 1 37 3 39 26 35 14 -2
64 -6 111 -10z m-35 -155 c66 -13 127 -24 135 -25 8 -2 19 -4 24 -4 6 -1 -6
-17 -25 -37 -29 -30 -39 -34 -64 -29 -16 3 -39 8 -50 10 -11 3 -61 14 -111 27
l-92 21 21 33 c12 17 26 30 32 29 5 -2 64 -13 130 -25z m-103 -145 c148 -35
141 -31 115 -67 -17 -23 -28 -28 -47 -25 -35 7 -224 58 -228 62 -8 8 32 63 42
59 6 -2 59 -15 118 -29z m-62 -146 c52 -12 97 -23 98 -25 6 -4 -31 -64 -39
-64 -17 0 -205 53 -212 59 -4 5 -2 20 4 35 10 20 18 26 33 22 12 -3 64 -15
116 -27z m18 -154 c10 -4 9 -11 -3 -36 -15 -28 -19 -30 -55 -24 -21 3 -64 14
-96 24 -60 18 -67 29 -50 77 4 9 126 -15 204 -41z"/>
<path d="M310 6105 c0 -63 1 -65 25 -65 21 0 25 5 26 33 0 17 2 47 3 65 3 29
1 32 -25 32 -29 0 -29 0 -29 -65z"/>
<path d="M6165 6006 c-33 -33 -42 -89 -20 -122 14 -22 22 -25 48 -20 70 13
102 99 54 144 -30 28 -52 28 -82 -2z"/>
<path d="M7035 5776 c-128 -59 -262 -314 -266 -507 -2 -71 12 -108 56 -149 73
-68 271 11 324 130 37 82 8 90 -83 25 -101 -71 -163 -89 -188 -53 -16 23 0
144 28 215 30 75 83 158 120 186 21 15 27 16 51 4 40 -19 63 -16 84 13 68 92
-18 185 -126 136z"/>
<path d="M8391 5769 c-10 -11 -31 -53 -45 -93 -36 -98 -209 -406 -221 -394 -4
4 -8 24 -20 108 -12 82 -14 95 -20 160 -3 36 -8 90 -11 120 -8 87 -54 131 -96
93 -29 -26 -30 -89 -4 -258 14 -88 28 -171 31 -185 9 -43 15 -73 26 -140 25
-144 82 -149 153 -15 15 28 45 79 67 114 21 34 39 64 39 65 0 1 32 56 72 122
39 65 82 141 96 169 26 53 31 117 11 141 -17 20 -55 17 -78 -7z"/>
<path d="M6540 5765 c-20 -7 -61 -31 -92 -55 -162 -120 -160 -253 5 -336 94
-47 109 -77 58 -113 -39 -28 -138 -53 -182 -46 -36 6 -49 -2 -62 -38 -4 -11 4
-28 22 -50 26 -28 35 -32 78 -31 33 0 71 11 114 31 111 52 150 97 164 193 10
65 -11 93 -112 147 -109 58 -116 70 -69 119 66 67 122 85 171 54 43 -27 54
-20 65 41 7 37 5 45 -16 66 -13 12 -33 24 -46 24 -13 1 -32 3 -43 4 -11 1 -36
-4 -55 -10z"/>
<path d="M7612 5767 c-7 -8 -25 -17 -41 -20 -16 -3 -48 -23 -73 -44 -220 -189
-291 -522 -131 -616 44 -25 139 -25 190 1 69 36 157 131 202 220 81 159 74
359 -14 442 -31 29 -115 40 -133 17z m94 -262 c-17 -158 -132 -315 -231 -315
-95 0 -118 110 -51 245 41 83 114 163 156 172 16 3 31 4 32 2 2 -2 17 6 33 18
l30 21 18 -46 c13 -33 17 -62 13 -97z"/>
<path d="M9712 5767 c-20 -9 -26 -23 -36 -97 -3 -19 -14 -81 -24 -138 -10 -56
-18 -138 -18 -181 1 -71 4 -84 31 -122 33 -47 75 -66 121 -55 15 4 59 39 96
77 37 39 68 68 68 66 0 -18 -47 -132 -75 -182 -61 -109 -209 -235 -276 -235
-35 0 -53 -45 -37 -92 12 -35 29 -40 81 -24 126 38 294 211 355 366 27 69 118
379 136 464 20 95 10 137 -32 148 -35 10 -61 -10 -72 -54 -48 -190 -98 -289
-185 -366 -81 -71 -111 -53 -101 61 7 83 8 91 26 172 7 33 17 64 22 70 11 12
10 68 -1 98 -11 28 -46 38 -79 24z"/>
<path d="M9196 5748 c-8 -13 -17 -56 -20 -96 -3 -40 -10 -101 -16 -135 -6 -34
-13 -71 -15 -82 -4 -28 -25 -145 -31 -175 -22 -122 -13 -180 29 -180 43 0 57
20 61 90 3 36 16 116 30 178 25 109 43 149 103 217 52 59 112 73 131 30 7 -14
23 -31 37 -37 22 -10 29 -9 47 10 60 60 -12 182 -108 182 -45 0 -69 -12 -121
-63 -24 -23 -43 -37 -44 -32 -3 52 -10 89 -20 101 -17 21 -47 17 -63 -8z"/>
<path d="M6118 5708 c-32 -11 -26 5 -79 -228 -75 -330 -77 -341 -68 -374 11
-40 42 -60 69 -46 11 6 20 13 20 15 0 5 46 214 94 428 20 87 36 166 36 176 0
25 -38 40 -72 29z"/>
<path d="M8790 5710 c-46 -13 -85 -38 -125 -79 -43 -44 -115 -149 -115 -167 0
-6 -11 -19 -25 -28 -26 -17 -45 -83 -28 -95 6 -3 10 -38 10 -78 0 -94 24 -134
100 -167 43 -19 155 -13 220 12 98 37 176 126 156 178 -9 23 -48 16 -89 -17
-104 -83 -209 -105 -259 -54 -28 27 -34 80 -12 107 6 8 41 21 76 28 79 14 167
52 205 88 91 85 87 233 -7 265 -47 16 -70 18 -107 7z m61 -162 c-16 -41 -81
-78 -166 -94 l-26 -5 16 31 c26 51 85 109 119 119 43 12 71 -14 57 -51z"/>
<path d="M216 4781 c-5 -8 -21 -229 -31 -436 -7 -143 -16 -268 -21 -299 -5
-27 -32 -74 -61 -104 -32 -33 -36 -79 -11 -110 33 -39 167 21 200 88 15 31 46
186 63 320 3 25 10 72 15 105 10 65 18 135 25 203 2 23 9 76 15 118 6 42 9 79
5 82 -9 10 -195 40 -199 33z"/>
<path d="M1807 4644 c-1 -2 -15 -5 -31 -8 -37 -7 -166 -68 -196 -92 -78 -65
-114 -103 -159 -168 -28 -41 -51 -79 -51 -85 0 -6 -3 -11 -7 -12 -5 0 -26 -2
-49 -4 -54 -4 -91 -24 -137 -74 -94 -102 -186 -299 -303 -648 -114 -342 -119
-355 -157 -380 -19 -13 -48 -23 -69 -23 -43 0 -68 -25 -68 -68 0 -70 35 -103
111 -104 68 0 115 31 145 97 19 41 107 283 144 395 24 73 91 253 100 271 7 12
17 18 27 15 8 -3 20 -6 26 -6 7 0 18 -4 25 -8 13 -9 17 5 -95 -312 -30 -85
-59 -166 -63 -180 -75 -225 -122 -331 -165 -374 -41 -41 -66 -46 -139 -28 -32
8 -60 12 -62 9 -14 -14 -13 -61 2 -86 55 -92 206 -92 290 1 58 65 110 196 270
691 43 130 82 237 88 237 25 0 86 -22 86 -31 0 -13 -135 -471 -230 -779 -15
-50 -70 -155 -99 -191 -65 -79 -161 -120 -265 -113 -51 4 -56 2 -56 -17 0 -11
5 -29 10 -40 9 -15 7 -19 -7 -20 -10 0 -29 -2 -43 -4 -14 -2 -46 -4 -72 -6
-27 -1 -48 -5 -49 -8 -9 -65 -4 -72 67 -76 32 -2 106 -6 163 -10 58 -4 116 -8
130 -10 14 -1 80 -6 146 -10 66 -4 127 -9 135 -10 31 -6 380 -18 502 -18 125
1 280 8 388 19 30 3 61 6 67 7 7 0 -7 21 -30 46 -110 118 -179 300 -194 511
-8 119 -8 212 1 515 4 132 9 410 9 618 l2 379 -30 -6 c-16 -4 -49 -16 -73 -27
l-43 -21 -23 21 c-13 12 -47 37 -75 55 l-53 33 26 16 c56 37 130 58 201 59 70
0 71 0 70 26 0 15 -4 30 -10 35 -9 6 -121 8 -128 1z m-127 -231 c78 -56 80
-61 33 -124 -23 -30 -53 -78 -67 -107 l-27 -53 -46 41 c-25 22 -70 54 -100 71
l-53 31 17 31 c10 17 43 57 73 89 69 72 93 75 170 21z m-322 -192 c15 -15 38
-44 52 -64 14 -20 33 -39 42 -42 22 -8 67 -65 89 -115 l18 -40 -33 25 c-42 32
-100 44 -109 22 -6 -16 18 -46 64 -82 31 -24 59 -75 59 -106 0 -21 -1 -21 -21
5 -29 37 -57 50 -109 52 -25 1 -53 2 -62 3 -30 2 -48 44 -52 120 -5 76 -16
101 -44 96 -9 -2 -20 -4 -24 -4 -4 -1 -18 -17 -32 -37 -22 -33 -25 -34 -31
-15 -22 70 8 150 69 186 55 33 91 32 124 -4z m-318 -478 c0 -9 -68 -207 -150
-435 -37 -104 -78 -204 -91 -223 -32 -47 -94 -72 -142 -56 -42 14 -59 32 -48
50 7 10 13 10 29 2 38 -21 94 -10 128 24 26 25 33 43 200 532 30 86 43 113 57
113 9 0 17 -3 17 -7z m182 -59 c4 -3 -40 -141 -97 -307 -157 -461 -174 -508
-202 -544 -31 -40 -94 -79 -141 -88 -61 -10 -131 22 -132 62 0 9 9 9 39 -2 72
-25 147 -2 200 62 22 27 105 221 117 273 0 3 3 12 7 20 11 28 89 255 91 265 1
6 21 67 45 138 38 114 54 140 73 121z m210 -59 c3 -3 -5 -43 -19 -88 -13 -45
-53 -183 -89 -307 -127 -442 -160 -522 -242 -605 -85 -85 -244 -139 -308 -105
-43 24 -28 35 49 36 53 0 85 6 121 23 63 30 149 110 185 175 25 45 78 201 140
411 34 114 109 377 121 423 10 37 26 52 42 37z"/>
<path d="M1270 4195 c-16 -19 -3 -55 20 -55 23 0 32 36 13 55 -18 18 -18 18
-33 0z"/>
<path d="M7379 4535 c-96 -24 -187 -99 -232 -190 -38 -76 -47 -120 -43 -216 3
-76 8 -98 35 -153 36 -75 92 -128 157 -150 73 -25 247 -8 296 28 13 10 19 34
24 94 6 72 5 82 -9 82 -10 0 -19 -12 -23 -27 -11 -48 -45 -99 -77 -118 -47
-28 -134 -29 -182 -2 -93 52 -136 153 -132 312 4 148 44 225 141 271 59 28
139 28 181 0 15 -10 37 -40 48 -67 33 -78 49 -65 45 38 l-3 87 -40 8 c-67 14
-139 15 -186 3z"/>
<path d="M8018 4539 c-104 -16 -214 -94 -260 -183 -69 -135 -64 -300 14 -416
125 -188 413 -157 525 57 36 68 44 98 48 175 6 103 -29 209 -91 278 -63 70
-149 102 -236 89z m76 -73 c48 -20 105 -81 134 -145 21 -46 26 -71 26 -146 1
-113 -7 -151 -44 -206 -71 -109 -209 -128 -309 -43 -148 124 -133 453 24 533
47 24 121 27 169 7z"/>
<path d="M9298 4545 c-2 -2 -21 -5 -43 -7 -91 -11 -197 -84 -249 -173 -72
-121 -72 -304 -1 -414 109 -170 344 -182 485 -24 156 176 118 486 -72 584 -34
17 -113 40 -120 34z m112 -135 c55 -57 80 -120 87 -221 10 -135 -36 -248 -117
-289 -182 -93 -352 65 -337 314 7 121 49 205 120 243 86 44 174 28 247 -47z"/>
<path d="M9778 4532 c-82 -2 -107 -6 -112 -17 -4 -11 2 -15 19 -15 50 0 53
-19 54 -323 0 -155 -4 -288 -9 -298 -6 -10 -23 -20 -40 -24 -16 -4 -30 -13
-30 -21 0 -11 25 -13 125 -13 103 0 125 2 125 14 0 14 -17 19 -46 16 -29 -3
-39 33 -40 149 l-1 116 38 3 c38 2 41 0 77 -59 141 -232 164 -255 246 -245 28
3 52 8 54 10 10 10 -9 35 -26 35 -26 0 -99 80 -146 160 -22 36 -48 75 -59 88
l-21 22 43 36 c59 51 83 103 84 184 1 49 -4 74 -19 100 -41 71 -106 88 -316
82z m190 -69 c39 -29 54 -67 53 -135 -1 -67 -23 -122 -58 -145 -13 -9 -48 -16
-81 -17 l-57 -1 -1 155 c0 85 1 159 4 164 8 15 112 0 140 -21z"/>
<path d="M5885 4520 c-6 -10 1 -14 47 -24 38 -9 40 -26 36 -349 -3 -299 -3
-296 -55 -297 -14 0 -23 -6 -23 -15 0 -12 20 -15 120 -14 88 0 120 3 120 13 0
6 -14 16 -32 21 -22 7 -34 18 -39 36 -3 14 -6 150 -5 301 1 213 5 279 15 292
7 9 17 14 21 11 13 -8 40 6 40 21 0 11 -24 14 -119 14 -70 0 -122 -4 -126 -10z"/>
<path d="M6180 4516 c0 -8 14 -17 30 -21 53 -12 56 -31 55 -339 -1 -261 -2
-279 -20 -292 -10 -8 -27 -14 -37 -14 -10 0 -18 -7 -18 -15 0 -12 18 -15 105
-15 87 0 105 3 105 15 0 9 -9 15 -24 15 -32 0 -56 25 -57 58 -2 68 -4 492 -2
492 1 0 32 -39 69 -87 38 -49 79 -102 94 -119 30 -37 44 -55 90 -114 19 -25
38 -49 43 -55 97 -122 157 -201 157 -206 0 -3 11 -4 24 -2 l23 5 1 306 c1 169
4 320 8 335 4 21 13 29 35 34 16 3 29 12 29 19 0 11 -22 14 -103 14 -86 0
-104 -3 -104 -15 0 -14 15 -19 44 -16 33 4 39 -35 41 -285 l3 -248 -172 220
c-94 120 -193 247 -220 282 l-49 62 -75 0 c-58 0 -75 -3 -75 -14z"/>
<path d="M8425 4521 c-6 -11 1 -16 36 -25 15 -3 29 -14 31 -24 3 -11 6 -144 6
-296 1 -254 -5 -328 -25 -325 -24 4 -43 -3 -43 -15 0 -12 34 -14 204 -14 112
0 209 -2 214 -6 14 -9 18 9 21 100 1 53 -2 84 -9 89 -15 10 -21 3 -27 -36 -7
-46 -29 -86 -50 -93 -17 -5 -130 -9 -181 -7 l-24 1 4 304 c2 167 6 307 10 311
5 6 27 12 51 14 4 1 7 8 7 16 0 12 -19 15 -109 15 -61 0 -112 -4 -116 -9z"/>
</g>
</svg>
